<?xml version="1.0" encoding="utf-8"?>
<!-- Generator: Adobe Illustrator 28.1.0, SVG Export Plug-In . SVG Version: 6.00 Build 0)  -->
<svg version="1.1" id="Capa_1" xmlns="http://www.w3.org/2000/svg" xmlns:xlink="http://www.w3.org/1999/xlink" x="0px" y="0px"
	 viewBox="0 0 300 300" style="enable-background:new 0 0 300 300;" xml:space="preserve">
<style type="text/css">
	.st0{fill:#F6ECE7;}
</style>
<g>
	<g>
		<g>
			<g>
				<path class="st0" d="M195.07,236.06l-16.02-38.28l-0.53-1.27c-0.38,0.26-0.78,0.51-1.18,0.74c-8.19,4.94-18.84,7.75-31.29,7.75
					c-11.76,0-23.02-1.74-33.29-5.17c-0.44-0.14-0.87-0.29-1.3-0.45c-0.53-0.18-1.05-0.37-1.59-0.56c-0.42-0.16-0.85-0.31-1.29-0.49
					c-6.07-2.37-11.74-5.37-16.91-8.98v-10.36c5.13,6.19,11.32,11.4,18.41,15.38c0.4,0.23,0.79,0.45,1.2,0.67l0.48-1.26l24.47-64.99
					c0.52,0.26,1.05,0.53,1.57,0.79l-23.56,62.27l-0.42,1.27l-0.55,1.44l-0.48,1.27c0.41,0.21,0.82,0.41,1.23,0.6
					c8.95,4.25,19.19,6.67,30.51,6.89c12.25,0.23,23.71-2.35,31.89-8.16c0.4-0.27,0.78-0.55,1.15-0.85c3.05-2.35,5.59-5.2,7.46-8.56
					c0.3-0.51,0.57-1.04,0.82-1.57c1.34-2.75,2.26-5.82,2.68-9.21c1.63-13.6-6.96-22.83-19.32-30.62c-0.66-0.41-1.31-0.82-2-1.23
					l0.89,2.12l16.24,38.89c-1.75,3.43-4.21,6.43-7.33,8.91l-0.59-1.19l-22.67-54.44l-0.79-1.9l-6.22-14.96l-0.79-1.9l-2.12-5.09
					l-1.3,3.43l-0.49,1.29c0.41,0.21,0.83,0.4,1.24,0.6c0.53,0.26,1.08,0.52,1.61,0.78l6.21,14.93c-3.84-1.9-7.75-3.77-11.61-5.69
					c-0.41-0.21-0.82-0.41-1.23-0.62c-0.52-0.26-1.05-0.53-1.57-0.81c-0.41-0.19-0.82-0.41-1.23-0.62
					c-20.6-10.62-38.28-23.09-33.47-46.26c3.38-15.65,19.67-27.93,39.99-27.93c19.88,0,32.58,7.41,46.54,17.99v10.57
					c-11.43-15.65-23.27-27.29-45.27-27.29c-18.2,0-33.86,9.1-35.76,24.12c-2.52,18.98,13.04,29.47,31.73,38.83
					c0.41,0.21,0.82,0.41,1.23,0.62l0.48-1.29l7.14-18.93l11.69,28l0.82,1.94c0.63,0.31,1.26,0.63,1.87,0.94
					c19.48,9.99,35.83,21.94,32.41,44.05c-0.98,6.07-3.47,11.54-7.26,16.19c-0.31,0.4-0.64,0.79-0.98,1.18l0.59,1.41l18.83,45.07
					c3.17,7.61,8.26,9.31,8.26,9.31h-22.43C192.74,245.37,197.83,242.83,195.07,236.06z"/>
				<path class="st0" d="M101.98,245.37H86.33c3.17-0.63,6.77-1.7,9.52-9.31l13.53-35.96c0.53,0.21,1.05,0.4,1.59,0.59l-13.43,35.37
					C95.01,243.05,99.65,244.95,101.98,245.37z"/>
				<path class="st0" d="M101.98,245.37H86.33c3.17-0.63,6.77-1.7,9.52-9.31l13.53-35.96c0.53,0.21,1.05,0.4,1.59,0.59l-13.43,35.37
					C95.01,243.05,99.65,244.95,101.98,245.37z"/>
			</g>
		</g>
		<path class="st0" d="M150.33,7.08c102.13-0.69,174.12,102.56,132.82,197.46c-50.99,116.57-216.5,118.91-266.94,0.54
			C-23.65,109.78,47.89,6.31,150.33,7.08L150.33,7.08z M150.33,7.66C26.67,8.72-34.8,160.5,51.74,248.11
			c52.34,54.6,145.6,56.27,198.39,1.22C336.38,161.66,273.77,8.26,150.33,7.66L150.33,7.66z"/>
	</g>
</g>
</svg>
